<?xml version="1.0" encoding="utf-8"?>
<!-- Generator: Adobe Illustrator 21.0.0, SVG Export Plug-In . SVG Version: 6.00 Build 0)  -->
<svg version="1.1" id="Layer_1" xmlns="http://www.w3.org/2000/svg" xmlns:xlink="http://www.w3.org/1999/xlink" x="0px" y="0px"
	 viewBox="0 0 109.8 97.8" style="enable-background:new 0 0 109.8 97.8;" xml:space="preserve">
<style type="text/css">
	.st0{fill:#161616;}
</style>
<g>
	<path class="st0" d="M54.8,28.8c0.9-1.1,1.8-2.3,2.8-3.3c3.2-3.1,7.2-3.5,11.2-1.2c2.9,1.6,5.1,3.9,6.9,6.6
		c2.2,3.3,4.2,6.8,6.3,10.2c1.3,2.2,2.7,4.3,4.7,5.9c1.4,1.1,2.9,1.8,4.8,1.9c1.2,0,1.8,0.7,1.9,1.9c0.1,1.6-0.7,2.8-2.1,3.5
		c-3.7,1.7-6.9,4-10,6.7c-2.5,2.2-5,4.4-7.6,6.5c-2.8,2.4-5.8,4.4-9.2,5.8c-2.4,0.9-4.9,1.5-7.5,1.6c-4,0.2-7.9,0-11.7-1.5
		c-3.5-1.4-6.6-3.5-9.4-5.9c-3-2.5-5.9-5.1-8.9-7.6c-2.9-2.4-6-4.4-9.4-5.9c-1.3-0.6-2-3.3-1.1-4.4c0.2-0.3,0.7-0.6,1.1-0.6
		c3.5,0,5.8-2,7.7-4.6c1.8-2.5,3.3-5.2,4.9-7.9c2.1-3.4,4.1-6.8,7.1-9.5c1.2-1.1,2.6-2.1,4-2.9c4-2.1,8.2-1.3,11.2,2.1
		C53.5,27,54.2,28,54.8,28.8z M38.4,50.9c0.1,0.1,0.1,0.2,0.1,0.2c3.6,1.5,7.1,3,10.9,3.9c2.7,0.6,5.4,1.1,8.2,0.6
		c3.1-0.6,6.1-1.4,9-2.5c1.6-0.6,3.2-1.3,4.9-1.9c-0.3-0.2-0.5-0.3-0.6-0.4c-3.5-1.6-7-3.3-10.5-4.9c-0.4-0.2-0.8-0.2-1.2,0
		c-2.3,1.1-4.7,1.8-7.2,0.5c-0.4-0.2-0.8-0.3-1.2-0.5c-0.5-0.3-0.9-0.2-1.3,0c-3.1,1.5-6.3,2.9-9.4,4.4
		C39.4,50.4,38.9,50.6,38.4,50.9z"/>
</g>
</svg>
