<?xml version="1.0" encoding="utf-8"?>
<!-- Generator: Adobe Illustrator 21.0.0, SVG Export Plug-In . SVG Version: 6.00 Build 0)  -->
<svg version="1.1" id="Layer_1" xmlns="http://www.w3.org/2000/svg" xmlns:xlink="http://www.w3.org/1999/xlink" x="0px" y="0px"
	 viewBox="0 0 412.5 44" style="enable-background:new 0 0 412.5 44;" xml:space="preserve">
<style type="text/css">
	.st0{fill:#161616;}
</style>
<g>
	<path class="st0" d="M118.5,16.8c-5.9-1.3-7.3-2.2-7.3-4.1v-0.1c0-1.5,1.4-2.7,4.2-2.7c1.7,0,5.1-0.1,8.2-0.1
		c-0.1-0.3-0.1-0.6-0.1-0.9V0.5c0-0.1,0-0.2,0-0.3c-4.3,0-7.3,0-7.8,0c-10.1,0-16.4,5.7-16.4,13.5v0.1c0,8.7,6.9,11.2,15.9,13.3
		c5.7,1.3,7.1,2.3,7.1,4v0.1c0,1.3-0.8,2.2-2.4,2.6c0,0,0,0,0,0h-14.4v0.1h-7.7c0.3-1.2,0.5-2.4,0.5-3.8v-0.1c0-7.9-6-11-15.8-13.2
		c-5.9-1.3-7.3-2.2-7.3-4.1v-0.1c0-1.5,1.4-2.7,4.2-2.7c1.7,0,5.1-0.1,8.2-0.1c-0.1-0.3-0.1-0.6-0.1-0.9V0.5c0-0.1,0-0.2,0-0.3
		c-4.3,0-7.3,0-7.8,0c-10.1,0-16.4,5.7-16.4,13.5v0.1c0,8.7,6.9,11.2,15.9,13.3c5.7,1.3,7.1,2.3,7.1,4v0.1c0,1.3-0.8,2.2-2.4,2.6
		c0,0,0,0,0,0H69.6v0.1h-6.6v-0.1h-6c-0.1,0-0.1-0.1-0.1-0.1V0.8h-0.4V0.5H27.3v0.4h-0.2L12.7,17.8c-0.1,0.1-0.2,0-0.2-0.1V1
		c0-0.1-0.1-0.1-0.1-0.1H0.9C0.9,0.8,0.8,0.9,0.8,1v42c0,0.1,0.1,0.1,0.1,0.1h11.5c0.1,0,0.1-0.1,0.1-0.1V32.2c0,0,0-0.1,0-0.1
		l4.2-4.6c0-0.1,0.1,0,0.2,0L27.4,43c0,0,0.1,0,0.1,0h1.9v0.1h28.5v0h54c2.8,0,5,0.1,5.8,0.1c10.3,0,16.6-4.6,16.6-13.2v-0.1
		C134.2,22,128.2,18.9,118.5,16.8z M25,19.1c0,0,0-0.1,0-0.1l8.2-9.4c0,0,0.1,0,0.1,0H45c0.1,0,0.1,0.1,0.1,0.1v24.8h-9.5L25,19.1z"
		/>
	<g>
		<path class="st0" d="M398.6,0.8l-8.8,15.4l-8.7-15.4l-13.3,0l-35.8,0c0,0-22.1,0-22.5,0h-18.1v0h-6.9v0h-11.9v23.8
			c0,5.9-3.1,8.7-7.8,8.7c-4.7,0-7.8-2.9-7.8-9V0.8h-11.9v0h-20.8c-0.4,0-0.8,0-1.2,0H205v42.3h11.7V31h5.8
			c10.5,0,18.2-5.3,18.2-15.2v-0.1c0-1.7-0.2-3.4-0.7-4.8h5.1v13.7c0,13.2,7.5,19.3,19.6,19.3c12,0,19.8-6,19.8-19.6V10.9h6.9v32.2
			h11.7V31h5.8c10.5,0,18.2-5.3,18.2-15.2v-0.1c0-1.7-0.2-3.4-0.7-4.8h5.6v32.2h11.7V31h5.8c10.5,0,18.2-5.3,18.2-15.2v-0.1
			c0-2-0.3-3.7-0.9-5.4h6.7l10.3,16.9v15.8h11.8v-16l16.1-26.3H398.6z M229,16.2v0.1c0,3.3-2.5,5.5-6.7,5.5h-5.6v-11h7.6
			C227.3,11.4,229,13.3,229,16.2z M315.4,16.4c0,3.3-2.5,5.5-6.7,5.5h-5.6v-11h7.6c3,0.6,4.7,2.4,4.7,5.4V16.4z M356,16.4
			c0,3.3-2.5,5.5-6.7,5.5h-5.6v-11h7.6c3,0.6,4.7,2.4,4.7,5.4V16.4z"/>
	</g>
	<g>
		<path class="st0" d="M168.2,10.2c0.5-0.6,0.9-1.2,1.5-1.8c1.7-1.7,3.9-1.9,6-0.6c1.5,0.9,2.7,2.1,3.7,3.6c1.2,1.8,2.3,3.6,3.4,5.5
			c0.7,1.2,1.5,2.3,2.5,3.2c0.7,0.6,1.6,1,2.6,1c0.7,0,1,0.4,1,1c0,0.8-0.4,1.5-1.1,1.9c-2,0.9-3.7,2.2-5.4,3.6
			c-1.4,1.2-2.7,2.4-4.1,3.5c-1.5,1.3-3.1,2.4-4.9,3.1c-1.3,0.5-2.6,0.8-4,0.9c-2.1,0.1-4.2,0-6.3-0.8c-1.9-0.7-3.5-1.9-5.1-3.1
			c-1.6-1.3-3.2-2.7-4.8-4.1c-1.5-1.3-3.2-2.4-5-3.2c-0.7-0.3-1-1.8-0.6-2.4c0.1-0.2,0.4-0.3,0.6-0.3c1.9,0,3.1-1.1,4.1-2.5
			c0.9-1.4,1.8-2.8,2.6-4.2c1.1-1.8,2.2-3.7,3.8-5.1c0.7-0.6,1.4-1.2,2.2-1.6c2.2-1.1,4.4-0.7,6,1.1C167.5,9.2,167.8,9.7,168.2,10.2
			z M159.3,22C159.4,22.1,159.4,22.1,159.3,22c2,0.9,3.9,1.7,5.9,2.2c1.4,0.3,2.9,0.6,4.4,0.3c1.7-0.3,3.3-0.8,4.8-1.4
			c0.9-0.3,1.7-0.7,2.6-1c-0.2-0.1-0.2-0.2-0.3-0.2c-1.9-0.9-3.8-1.7-5.6-2.6c-0.2-0.1-0.4-0.1-0.7,0c-1.3,0.6-2.5,0.9-3.9,0.3
			c-0.2-0.1-0.5-0.2-0.7-0.3c-0.3-0.1-0.5-0.1-0.7,0c-1.7,0.8-3.4,1.6-5.1,2.4C159.9,21.8,159.6,21.9,159.3,22z"/>
	</g>
</g>
</svg>
